<svg fill="none" height="32" viewBox="0 0 24 24" width="32" xmlns="http://www.w3.org/2000/svg"><path d="m4.5 2.625c0-.20711.16789-.375.375-.375 3.31371 0 6 2.68629 6 6v5.25c0 .2071-.1679.375-.375.375h-5.625c-.20711 0-.375-.1679-.375-.375z" fill="#182a71"/><path d="m12.375 7.40625c0-.15533.1259-.28125.2812-.28125 3.5726 0 6.4688 2.8962 6.4688 6.4688 0 .1553-.1259.2812-.2812.2812h-3.4688c-1.6569 0-3-1.3431-3-3z" fill="#3485c4"/><path clipRule="evenodd" d="m19.3628 15.4109c.034-.2191-.1401-.4109-.3618-.4109h-14.09782c-.22175 0-.39585.1918-.3618.4109.55799 3.5909 3.6634 6.3391 7.41072 6.3391 3.7473 0 6.8527-2.7482 7.4107-6.3391z" fill="#afd8f7" fillRule="evenodd"/></svg>