<?xml version="1.0" standalone="no"?>
<!DOCTYPE svg PUBLIC "-//W3C//DTD SVG 20010904//EN"
 "http://www.w3.org/TR/2001/REC-SVG-20010904/DTD/svg10.dtd">
<svg version="1.0" xmlns="http://www.w3.org/2000/svg"
 width="1500.000000pt" height="1500.000000pt" viewBox="0 0 1500.000000 1500.000000"
 preserveAspectRatio="xMidYMid meet">

<g transform="translate(0.000000,1500.000000) scale(0.100000,-0.100000)"
fill="#5243C2" stroke="none">
<path d="M7135 14989 c-1456 -69 -2857 -561 -4040 -1419 -534 -388 -1055 -887
-1471 -1410 -472 -594 -877 -1306 -1141 -2010 -256 -680 -397 -1320 -465
-2110 -16 -191 -16 -889 0 -1080 91 -1058 330 -1927 772 -2810 783 -1564 2082
-2805 3676 -3510 1923 -852 4144 -852 6065 -2 1774 785 3176 2229 3914 4027
295 721 463 1437 537 2295 16 191 16 889 0 1080 -59 682 -169 1239 -360 1815
-120 361 -236 639 -414 995 -372 744 -815 1359 -1407 1951 -390 390 -741 676
-1196 975 -1316 865 -2877 1288 -4470 1213z m-170 -2710 c1040 -68 1985 -440
2805 -1106 178 -144 508 -472 655 -651 697 -846 1078 -1847 1122 -2944 l6
-168 699 0 c773 0 773 0 913 -65 143 -66 262 -181 330 -320 50 -100 68 -183
68 -300 0 -85 -6 -123 -42 -259 -146 -557 -445 -1090 -909 -1625 -138 -158
-454 -470 -626 -616 -985 -842 -2270 -1469 -3526 -1719 -401 -80 -656 -106
-1130 -113 -554 -8 -860 15 -1270 97 -1301 261 -2515 1033 -3327 2115 -521
696 -846 1480 -947 2285 -72 575 -22 1226 140 1812 533 1939 2228 3366 4229
3562 271 27 556 32 810 15z"/>
<path d="M3891 8984 c-192 -41 -369 -182 -452 -359 -65 -137 -64 -128 -64
-805 0 -688 -2 -664 72 -819 82 -172 241 -299 433 -347 87 -22 259 -15 350 15
93 29 183 86 259 161 76 75 121 147 159 252 l27 73 0 660 0 660 -28 80 c-107
312 -436 499 -756 429z"/>
<path d="M6170 8985 c-211 -47 -393 -210 -476 -425 l-29 -75 0 -665 0 -665 27
-73 c38 -104 83 -175 159 -251 124 -125 255 -181 434 -189 133 -5 202 9 325
70 154 75 283 234 336 413 16 54 18 122 21 640 5 616 1 684 -42 802 -48 134
-154 264 -272 336 -136 83 -333 116 -483 82z"/>
</g>
</svg>
