<?xml version="1.0" standalone="no"?>
<!DOCTYPE svg PUBLIC "-//W3C//DTD SVG 20010904//EN"
 "http://www.w3.org/TR/2001/REC-SVG-20010904/DTD/svg10.dtd">
<svg version="1.0" xmlns="http://www.w3.org/2000/svg"
 width="300.000000pt" height="300.000000pt" viewBox="0 0 300.000000 300.000000"
 preserveAspectRatio="xMidYMid meet">

<g transform="translate(0.000000,300.000000) scale(0.100000,-0.100000)"
fill="#000000" stroke="none">
<path d="M1395 2994 c-153 -15 -381 -70 -450 -107 -11 -6 -24 -12 -30 -13 -34
-6 -239 -133 -313 -192 l-42 -35 47 -25 c152 -80 381 -283 434 -384 6 -12 15
-25 18 -28 11 -8 69 -106 88 -147 9 -21 19 -41 20 -44 2 -4 -20 -20 -49 -37
-29 -16 -64 -39 -78 -52 -14 -12 -3 -7 23 10 133 87 260 124 432 124 149 1
234 -18 358 -80 107 -54 247 -169 247 -203 0 -18 -139 -161 -155 -161 -6 0
-27 16 -46 36 -49 53 -155 119 -230 144 -47 17 -89 23 -159 23 -156 1 -275
-45 -391 -154 l-64 -61 60 50 c64 52 120 92 129 92 13 0 26 -84 32 -200 l6
-125 -84 -83 -85 -83 -134 127 -134 128 132 -135 133 -134 99 99 c55 55 97
104 94 110 -3 6 -3 8 2 4 4 -4 47 29 95 72 48 44 94 80 102 80 8 0 23 -10 34
-21 10 -12 95 -93 187 -182 l168 -160 183 181 c101 100 191 182 201 182 28 0
156 -130 153 -155 -2 -13 -111 -128 -259 -273 -191 -187 -263 -252 -280 -252
-18 0 -54 30 -129 106 -58 58 -140 137 -182 176 l-78 70 -180 -174 c-124 -118
-189 -174 -207 -176 -22 -3 -48 17 -157 125 l-131 128 137 -139 c111 -112 141
-138 158 -133 20 5 20 4 8 -16 -8 -12 -25 -40 -38 -62 -13 -22 -27 -42 -30
-45 -4 -3 -13 -16 -19 -28 -19 -36 -48 -69 -141 -162 -97 -97 -131 -126 -166
-142 -13 -6 -24 -14 -24 -17 0 -3 -32 -24 -70 -46 -38 -22 -70 -43 -70 -47 0
-19 315 -222 348 -223 4 -1 16 -6 27 -12 11 -6 63 -24 115 -41 357 -113 753
-83 1096 83 152 73 268 157 400 289 228 228 363 488 421 806 23 128 23 372 0
500 -114 634 -606 1124 -1230 1225 -94 15 -286 26 -352 19z"/>
<path d="M955 1858 l-50 -53 53 50 c28 27 52 51 52 52 0 8 -9 -1 -55 -49z"/>
<path d="M970 1675 c35 -36 67 -65 69 -65 3 0 -24 29 -59 65 -35 36 -67 65
-69 65 -3 0 24 -29 59 -65z"/>
</g>
</svg>
