<svg width="12" height="16" viewBox="0 0 12 16" fill="none" xmlns="http://www.w3.org/2000/svg">
<path d="M7.75118 16C6.58522 16 5.73413 15.725 5.19802 15.175C4.7014 14.7094 4.41317 14.0702 4.39645 13.3972C4.3904 13.1927 4.43882 12.9903 4.53686 12.8096C4.62831 12.6536 4.76044 12.5241 4.91976 12.4344C5.29514 12.2511 5.7367 12.2511 6.11208 12.4344C6.27112 12.5237 6.4026 12.6533 6.49285 12.8096C6.59372 12.9894 6.64394 13.1922 6.63827 13.3972C6.64867 13.6421 6.57694 13.8835 6.43402 14.0847C6.31491 14.2489 6.14465 14.371 5.94873 14.4325C6.14029 14.6713 6.41131 14.8367 6.71463 14.9C7.05401 14.9965 7.40543 15.0461 7.7588 15.0474C8.22667 15.0514 8.68489 14.9173 9.07367 14.6625C9.47705 14.3834 9.77781 13.9846 9.93151 13.525C10.1263 12.978 10.2214 12.4017 10.2123 11.8225C10.228 11.2187 10.124 10.6176 9.90596 10.0525C9.74197 9.60057 9.43064 9.21402 9.02002 8.95252C8.63838 8.71604 8.19535 8.59194 7.74372 8.59508C7.35014 8.62772 6.97068 8.75385 6.63816 8.9626L5.81839 9.36505V8.9626L9.50248 4.12314H4.39645V9.14511C4.38201 9.50751 4.47994 9.86569 4.67728 10.1726C4.8715 10.4446 5.19688 10.5973 5.53512 10.5751C5.84236 10.569 6.13942 10.4665 6.38266 10.2826C6.65837 10.0847 6.89829 9.84308 7.09246 9.56756C7.10995 9.51924 7.14219 9.47738 7.18478 9.44761C7.21899 9.41865 7.26267 9.40271 7.30788 9.4026C7.3966 9.41055 7.48054 9.44548 7.54791 9.50255C7.63326 9.59593 7.67966 9.71727 7.67808 9.84255C7.66823 9.92676 7.65287 10.0103 7.63211 10.0925C7.45074 10.5224 7.14666 10.892 6.75635 11.1572C6.39383 11.3974 5.96567 11.5247 5.52793 11.5225C4.42237 11.5225 3.65653 11.3092 3.23033 10.8825C2.78779 10.4062 2.55958 9.77545 2.59716 9.13247V4.12303H0V3.18997H2.60925V1.06245L2.01187 0.477066V0H3.74536L4.3965 0.330026V3.18992L11.1417 3.16981L11.8133 3.82981L7.67721 7.89951C7.9271 7.80111 8.19023 7.73876 8.45842 7.7145C8.98919 7.73727 9.50706 7.88202 9.97013 8.13706C10.5063 8.38666 10.9582 8.78154 11.2723 9.27492C11.5537 9.69257 11.7528 10.1581 11.8596 10.6474C11.9473 11.0334 11.9943 11.4271 12 11.8225C12.0027 12.5771 11.828 13.3222 11.4893 14C11.1682 14.6564 10.6277 15.1856 9.95744 15.5C9.27116 15.8311 8.5161 16.0022 7.75118 16Z" fill="#56516A"/>
</svg>
