<svg width="16" height="15" viewBox="0 0 16 15" fill="none" xmlns="http://www.w3.org/2000/svg">
<path d="M12.1149 4.64383C11.8225 4.47766 11.4465 4.47766 11.1123 4.64383L8.77286 6.01473L7.18538 6.88714L4.88771 8.25804C4.59529 8.4242 4.21929 8.4242 3.8851 8.25804L2.08876 7.17794C1.79633 7.01177 1.58748 6.67944 1.58748 6.30553V4.22839C1.58748 3.89606 1.75457 3.56368 2.08876 3.35598L3.8851 2.31741C4.17752 2.15124 4.55352 2.15124 4.88771 2.31741L6.68405 3.39751C6.97648 3.56368 7.18533 3.89601 7.18533 4.26992V5.64082L8.77281 4.72689V3.31445C8.77281 2.98212 8.60571 2.64974 8.27152 2.44205L4.92952 0.489493C4.63709 0.323327 4.2611 0.323327 3.9269 0.489493L0.501333 2.48358C0.167095 2.64974 0 2.98207 0 3.31445V7.21951C0 7.55185 0.167095 7.88422 0.501286 8.09192L3.8851 10.0444C4.17752 10.2106 4.55352 10.2106 4.88771 10.0444L7.18538 8.71505L8.77286 7.80112L11.0705 6.47175C11.363 6.30558 11.739 6.30558 12.0731 6.47175L13.8695 7.51032C14.1619 7.67648 14.3708 8.00881 14.3708 8.38272V10.4599C14.3708 10.7922 14.2037 11.1246 13.8695 11.3323L12.1149 12.3708C11.8225 12.537 11.4465 12.537 11.1123 12.3708L9.31595 11.3323C9.02352 11.1661 8.81467 10.8338 8.81467 10.4599V9.13049L7.22719 10.0444V11.4153C7.22719 11.7477 7.39429 12.08 7.72848 12.2877L11.1123 14.2402C11.4047 14.4064 11.7807 14.4064 12.1149 14.2402L15.4987 12.2877C15.7911 12.1216 16 11.7892 16 11.4153V7.46874C16 7.13641 15.8329 6.80403 15.4987 6.59633L12.1149 4.64383Z" fill="#56516A"/>
</svg>
